<?xml version="1.0" encoding="utf-8"?>
<!-- Generator: Adobe Illustrator 16.0.0, SVG Export Plug-In . SVG Version: 6.00 Build 0)  -->
<!DOCTYPE svg PUBLIC "-//W3C//DTD SVG 1.1//EN" "http://www.w3.org/Graphics/SVG/1.1/DTD/svg11.dtd">
<svg version="1.1" id="Layer_1" xmlns="http://www.w3.org/2000/svg" xmlns:xlink="http://www.w3.org/1999/xlink" x="0px" y="0px"
	 width="512px" height="512px" viewBox="0 0 512 512" enable-background="new 0 0 512 512" xml:space="preserve">
<path d="M324.344,256L443.281,47.875c5.625-9.906,5.625-22.063-0.125-31.938S426.906,0,415.469,0h-320
	C84.094,0,73.531,6.063,67.813,15.938s-5.781,22.031-0.094,31.938L186.625,256L67.719,464.125
	c-5.688,9.906-5.625,22.063,0.094,31.938S84.094,512,95.469,512h320c11.438,0,21.938-6.063,27.688-15.938s5.75-22.031,0.125-31.938
	L324.344,256z M95.469,480l128-224l-128-224h320l-128,224l128,224H95.469z M255.469,264.5L360.344,448H150.625L255.469,264.5z
	 M255.469,247.5l-50-87.5h100L255.469,247.5z"/>
</svg>
