<?xml version="1.0" encoding="utf-8"?>
<!-- Generator: Adobe Illustrator 15.0.2, SVG Export Plug-In . SVG Version: 6.00 Build 0)  -->
<!DOCTYPE svg PUBLIC "-//W3C//DTD SVG 1.1//EN" "http://www.w3.org/Graphics/SVG/1.1/DTD/svg11.dtd">
<svg version="1.1" id="Layer_1" xmlns="http://www.w3.org/2000/svg" xmlns:xlink="http://www.w3.org/1999/xlink" x="0px" y="0px"
	 width="512px" height="512px" viewBox="0 0 512 512" enable-background="new 0 0 512 512" xml:space="preserve">
<ellipse fill="#FFFFFF" cx="256" cy="255.875" rx="256" ry="256.125"/>
<g>
	<path fill="#FF4F1F" d="M430.233,512l-66.121-113.242c-26.603-43.32-42.562-71.441-58.521-101.083h-1.521
		c-14.439,29.642-29.643,57.002-55.481,101.843L187.028,512h-76.001l156.562-259.165L117.107-0.251h76.761l67.642,120.083
		c19.002,33.44,33.44,59.281,47.121,86.642h2.279c14.44-30.4,27.361-53.961,46.361-86.642L426.433-0.251h76.764L347.391,249.035
		L506.995,512H430.233z"/>
</g>
<path d="M324.344,256L443.281,47.875c5.625-9.906,5.625-22.063-0.125-31.938S426.906,0,415.469,0h-320
	C84.094,0,73.531,6.063,67.813,15.938c-5.718,9.875-5.781,22.031-0.094,31.938L186.625,256L67.719,464.125
	c-5.688,9.906-5.625,22.062,0.094,31.938C73.532,505.939,84.094,512,95.469,512h320c11.438,0,21.938-6.062,27.688-15.938
	c5.75-9.877,5.75-22.031,0.125-31.938L324.344,256z M95.469,480l128-224l-128-224h320l-128,224l128,224H95.469z M255.469,264.5
	L360.344,448H150.625L255.469,264.5z M255.469,247.5l-50-87.5h100L255.469,247.5z"/>
</svg>
